<?xml version="1.0" standalone="no"?>
<!DOCTYPE svg PUBLIC "-//W3C//DTD SVG 1.1//EN" "http://www.w3.org/Graphics/SVG/1.1/DTD/svg11.dtd" >
<svg xmlns="http://www.w3.org/2000/svg">
<metadata>Generated by IcoMoon</metadata>
<defs>
<font id="icomoon" horiz-adv-x="1024">
<font-face units-per-em="1024" ascent="960" descent="-64" />
<missing-glyph horiz-adv-x="1024" />
<glyph unicode="&#x20;" horiz-adv-x="512" d="" />
<glyph unicode="&#xe5cd;" glyph-name="close" d="M810 664.667l-238-238 238-238-60-60-238 238-238-238-60 60 238 238-238 238 60 60 238-238 238 238z" />
<glyph unicode="&#xe5d2;" glyph-name="menu" d="M128 682.667h768v-86h-768v86zM128 384.667v84h768v-84h-768zM128 170.667v86h768v-86h-768z" />
<glyph unicode="&#xe7fd;" glyph-name="person" d="M512 340.667c114 0 342-56 342-170v-86h-684v86c0 114 228 170 342 170zM512 426.667c-94 0-170 76-170 170s76 172 170 172 170-78 170-172-76-170-170-170z" />
<glyph unicode="&#xe80d;" glyph-name="share" d="M768 252.667c68 0 124-56 124-124s-56-126-124-126-124 58-124 126c0 10 0 20 2 28l-302 176c-24-22-54-34-88-34-70 0-128 58-128 128s58 128 128 128c34 0 64-12 88-34l300 174c-2 10-4 20-4 30 0 70 58 128 128 128s128-58 128-128-58-128-128-128c-34 0-64 14-88 36l-300-176c2-10 4-20 4-30s-2-20-4-30l304-176c22 20 52 32 84 32z" />
<glyph unicode="&#xe8b6;" glyph-name="search" d="M406 340.667c106 0 192 86 192 192s-86 192-192 192-192-86-192-192 86-192 192-192zM662 340.667l212-212-64-64-212 212v34l-12 12c-48-42-112-66-180-66-154 0-278 122-278 276s124 278 278 278 276-124 276-278c0-68-24-132-66-180l12-12h34z" />
<glyph unicode="&#xe900;" glyph-name="chevron-down" d="M231.219 552.209c22.323 22.835 53.402 24.627 80.691 0l200.090-191.846 200.090 191.846c27.29 24.627 58.419 22.835 80.589 0 22.323-22.784 20.89-61.286 0-82.688-20.787-21.402-240.384-230.502-240.384-230.502-11.11-11.418-25.702-17.152-40.294-17.152s-29.184 5.734-40.397 17.152c0 0-219.494 209.101-240.384 230.502-20.941 21.402-22.323 59.904 0 82.688z" />
<glyph unicode="&#xe901;" glyph-name="chevron-left" d="M637.542 707.448c22.835-22.323 24.627-53.402 0-80.691l-191.846-200.090 191.846-200.090c24.627-27.29 22.835-58.419 0-80.589-22.784-22.323-61.286-20.89-82.688 0-21.402 20.787-230.502 240.384-230.502 240.384-11.418 11.11-17.152 25.702-17.152 40.294s5.734 29.184 17.152 40.397c0 0 209.101 219.494 230.502 240.384 21.402 20.941 59.904 22.323 82.688 0z" />
<glyph unicode="&#xe902;" glyph-name="chevron-right" d="M469.146 707.448c21.402-20.89 230.502-240.384 230.502-240.384 11.418-11.213 17.152-25.805 17.152-40.397s-5.734-29.184-17.152-40.294c0 0-209.101-219.597-230.502-240.384-21.402-20.89-59.904-22.323-82.688 0-22.835 22.221-24.627 53.299 0 80.589l191.846 200.090-191.846 200.090c-24.627 27.29-22.835 58.419 0 80.691 22.784 22.323 61.286 20.941 82.688 0z" />
<glyph unicode="&#xe903;" glyph-name="chevron-thin-down" d="M891.802 625.886c13.926 13.722 36.301 13.722 50.125 0s13.875-35.891 0-49.613l-404.89-400.896c-13.824-13.722-36.198-13.722-50.125 0l-404.89 400.896c-13.824 13.722-13.824 35.891 0 49.613 13.875 13.722 36.301 13.722 50.125 0l379.853-365.619 379.802 365.619z" />
<glyph unicode="&#xe904;" glyph-name="chevron-thin-left" d="M711.219 46.865c13.722-13.926 13.722-36.301 0-50.125s-35.891-13.875-49.613 0l-400.896 404.89c-13.722 13.824-13.722 36.198 0 50.125l400.896 404.89c13.722 13.824 35.891 13.824 49.613 0 13.722-13.875 13.722-36.301 0-50.125l-365.619-379.853 365.619-379.802z" />
<glyph unicode="&#xe905;" glyph-name="chevron-thin-right" d="M678.4 426.667l-365.619 379.904c-13.722 13.824-13.722 36.198 0 50.125 13.722 13.824 35.891 13.824 49.613 0l400.896-404.89c13.722-13.875 13.722-36.301 0-50.125l-400.896-404.89c-13.722-13.875-35.891-13.824-49.613 0-13.722 13.773-13.722 36.198 0 50.125l365.619 379.75z" />
<glyph unicode="&#xe906;" glyph-name="chevron-thin-up" d="M132.198 227.448c-13.926-13.722-36.301-13.722-50.125 0s-13.875 35.891 0 49.613l404.89 400.896c13.824 13.722 36.198 13.722 50.125 0l404.89-400.896c13.824-13.722 13.824-35.891 0-49.613-13.875-13.722-36.301-13.722-50.074 0l-379.904 365.619-379.802-365.619z" />
<glyph unicode="&#xe907;" glyph-name="chevron-up" d="M792.781 301.125c-22.323-22.835-53.402-24.627-80.691 0l-200.090 191.846-200.090-191.846c-27.29-24.627-58.419-22.835-80.589 0-22.323 22.784-20.89 61.286 0 82.688 20.787 21.402 240.384 230.502 240.384 230.502 11.11 11.418 25.702 17.152 40.294 17.152s29.184-5.734 40.397-17.152c0 0 219.494-209.101 240.384-230.502 20.941-21.402 22.323-59.904 0-82.688z" />
<glyph unicode="&#xe908;" glyph-name="edit" d="M775.851 545.878l-155.221 172.373-459.861-422.827-38.4-187.947 190.592 12.8 462.891 425.643zM929.963 708.694l-131.541 151.296c-2.934 3.182-7.123 5.168-11.776 5.168-4.186 0-7.997-1.608-10.848-4.239l0.011 0.010-131.115-120.576 155.179-172.373 128.853 118.485c3.177 2.926 5.16 7.107 5.16 11.75 0 4.020-1.486 7.692-3.939 10.498l0.016-0.019zM96 42.667h832v-64h-832v64z" />
<glyph unicode="&#xe909;" glyph-name="add" d="M848 464.667h-298v322h-76v-322h-298c-4.4 0-8-3.6-8-8v-60c0-4.4 3.6-8 8-8h298v-322h76v322h298c4.4 0 8 3.6 8 8v60c0 4.4-3.6 8-8 8z" />
<glyph unicode="&#xe90a;" glyph-name="feed" d="M122.88 815.787v-121.19c362.803 0 656.896-294.195 656.896-656.998h121.293c0 429.773-348.416 778.189-778.189 778.189zM122.88 573.253v-121.293c228.813 0 414.362-185.498 414.362-414.413h121.242c0 295.834-239.821 535.706-535.603 535.706zM239.053 270.046c-64.205 0-116.224-52.122-116.224-116.275s52.019-116.224 116.224-116.224 116.173 52.019 116.173 116.224-51.968 116.275-116.173 116.275z" />
<glyph unicode="&#xe90b;" glyph-name="delete" d="M924.43 700.003h-154.061v104.254c0 38.566-31.397 69.99-69.963 69.99h-376.8c-38.566 0-69.949-31.424-69.949-69.99v-104.336l-154.334-0.054c-9.287 0-18.013-3.619-24.595-10.229-6.569-6.555-10.188-15.309-10.16-24.582 0-19.174 15.596-34.811 34.783-34.811l78.594 0.013v-581.022c0-38.566 31.383-69.99 69.963-69.99h528.226c38.566 0 69.963 31.424 69.963 69.99v558.57h-0.164l-0.013 22.561 78.54 0.013c19.188 0 34.783 15.637 34.783 34.852-0.030 19.175-15.639 34.771-34.813 34.771zM412.347 116.659c-19.188 0-34.783 15.637-34.783 34.811l-0.165 372.417c0 19.174 15.596 34.824 34.798 34.824 19.188 0 34.783-15.65 34.783-34.824l0.164-372.362c0-19.175-15.623-34.825-34.797-34.866zM611.843 116.659c-19.201 0-34.811 15.637-34.811 34.811l-0.164 372.417c0 19.174 15.596 34.824 34.783 34.824 19.201 0 34.798-15.65 34.798-34.824l0.164-372.362c0.014-19.175-15.582-34.825-34.77-34.866zM323.402 761.239c0 23.844 19.406 43.21 43.223 43.21h290.763c23.844 0 43.251-19.365 43.251-43.21v-61.278l-377.238-0.041v61.319z" />
<glyph unicode="&#xe90c;" glyph-name="behance" d="M413.286 462.456c0 0 96.87 7.526 96.87 125.901 0 118.528-79.258 176.179-179.712 176.179h-330.445v-661.811h330.445c0 0 201.779-6.605 201.779 195.379-0.051 0.051 8.755 164.352-118.938 164.352zM145.613 646.981h184.832c0 0 44.954 0 44.954-68.813 0-68.915-26.419-78.899-56.422-78.899h-173.363v147.712zM321.075 220.382h-175.462v176.896h184.832c0 0 66.97 0.922 66.97-90.88 0-77.414-50.022-85.453-76.339-86.016zM801.229 596.241c-244.275 0-244.070-254.31-244.070-254.31s-16.691-252.979 244.070-252.979c0 0 217.242-13.005 217.242 175.974h-111.718c0 0 3.686-71.219-101.786-71.219 0 0-111.821-7.782-111.821 115.2h328.858c0.051 0.051 36.301 287.334-220.774 287.334zM900.608 397.278h-208.589c0 0 13.619 101.99 111.718 101.99s96.87-101.99 96.87-101.99zM926.566 725.675h-261.99v-81.613h261.99v81.613z" />
<glyph unicode="&#xe90d;" glyph-name="mail" d="M80.589 668.024c24.986-13.414 371.098-199.373 384-206.285s29.594-10.189 46.387-10.189c16.794 0 33.485 3.277 46.387 10.189s359.014 192.87 384 206.285c25.037 13.466 48.691 65.843 2.765 65.843h-866.253c-45.926 0-22.272-52.378 2.714-65.843zM952.986 555.23c-28.416-14.797-378.214-197.069-395.622-206.182s-29.594-10.189-46.387-10.189-28.979 1.075-46.387 10.189-365.21 191.437-393.626 206.234c-19.968 10.445-19.763-1.792-19.763-11.213s0-373.402 0-373.402c0-21.504 28.979-51.2 51.2-51.2h819.2c22.221 0 51.2 29.696 51.2 51.2 0 0 0 363.93 0 373.35s0.205 21.658-19.814 11.213z" />
<glyph unicode="&#xe90e;" glyph-name="weibo" d="M752.026 423.185c-14.029 4.301-23.706 7.27-16.333 26.010 15.923 40.806 17.613 75.981 0.358 101.12-32.41 47.104-121.037 44.595-222.618 1.28 0 0.102-31.898-14.182-23.757 11.622 15.667 51.046 13.261 93.85-11.059 118.528-55.091 56.218-201.574-2.099-327.27-129.997-94.157-95.795-148.787-197.274-148.787-285.082 0-167.987 211.558-280.32 418.56-280.32 271.309 0 451.84 170.701 451.84 298.086 0 77.056-63.693 120.73-120.934 138.752zM421.683 61.662c-165.12-16.384-307.763 58.726-318.464 167.68-10.701 109.005 114.483 210.688 279.654 227.226 165.171 16.384 307.763-58.675 318.464-167.68 10.701-109.107-114.483-210.842-279.654-227.226zM1021.44 559.941c-0.051 169.574-137.523 306.995-307.2 306.995-19.814 0-35.789-15.974-35.789-35.789s15.974-35.789 35.789-35.789c130.099 0 235.571-105.523 235.571-235.622 0-19.814 16.026-35.789 35.84-35.789s35.789 16.026 35.789 35.84v0.154zM879.053 565.163c-16.333 79.974-79.411 143.002-159.386 159.386-19.354 3.994-38.298-8.499-42.291-27.904-3.942-19.302 8.499-38.298 27.904-42.291 52.019-10.598 92.979-51.61 103.629-103.578 3.994-19.405 22.938-31.795 42.291-27.904 19.302 3.994 31.846 22.989 27.853 42.291zM336.998 349.765c-66.56-13.414-111.462-69.222-100.301-124.621 11.162-55.501 74.086-89.6 140.646-76.186 66.509 13.414 111.411 69.222 100.301 124.621-11.162 55.398-74.189 89.6-140.646 76.186z" />
<glyph unicode="&#xe90f;" glyph-name="facebook" d="M870.4 887.467h-716.8c-56.32 0-102.4-46.080-102.4-102.4v-716.8c0-56.371 46.080-102.4 102.4-102.4h358.4v358.4h-102.4v126.72h102.4v104.96c0 110.797 62.054 188.621 192.819 188.621l92.314-0.102v-133.376h-61.286c-50.893 0-70.246-38.195-70.246-73.626v-86.528h131.482l-29.082-126.669h-102.4v-358.4h204.8c56.32 0 102.4 46.029 102.4 102.4v716.8c0 56.32-46.080 102.4-102.4 102.4z" />
<glyph unicode="&#xe910;" glyph-name="github" d="M674.816 359.646c-36.762 0-66.56-41.318-66.56-92.109 0-50.893 29.798-92.211 66.56-92.211s66.56 41.318 66.56 92.211c-0.051 50.79-29.798 92.109-66.56 92.109zM906.547 599.416c7.629 18.688 7.936 124.877-32.512 226.611 0 0-92.723-10.189-233.011-106.496-29.44 8.192-79.258 12.186-128.973 12.186-49.818 0-99.584-3.994-129.024-12.186-140.339 96.307-233.062 106.496-233.062 106.496-40.397-101.734-39.987-207.923-32.461-226.611-47.514-51.61-76.544-113.613-76.544-198.195 0-367.923 305.306-373.811 382.31-373.811 17.51 0 52.122-0.102 88.781-0.102 36.608 0 71.27 0.102 88.678 0.102 77.107 0 382.31 5.888 382.31 373.811 0 84.582-28.979 146.586-76.493 198.195zM513.434 72.619h-2.867c-193.075 0-343.501 22.989-343.501 210.688 0 45.005 15.872 86.682 53.606 121.293 62.822 57.702 169.216 27.187 289.894 27.187 0.512 0 1.024 0 1.485 0 0.512 0 0.922 0 1.382 0 120.678 0 227.123 30.515 289.997-27.187 37.632-34.611 53.504-76.288 53.504-121.293 0-187.699-150.374-210.688-343.501-210.688zM349.235 359.646c-36.762 0-66.56-41.318-66.56-92.109 0-50.893 29.798-92.211 66.56-92.211 36.813 0 66.611 41.318 66.611 92.211 0 50.79-29.798 92.109-66.611 92.109z" />
<glyph unicode="&#xe911;" glyph-name="google" d="M101.837 652.51c0-76.493 25.549-131.686 75.878-164.096 41.267-26.624 89.088-30.618 113.971-30.618 6.042 0 10.906 0.307 14.285 0.512 0 0-7.885-51.405 30.208-102.195h-1.741c-65.997 0-281.242-13.773-281.242-190.822 0-180.019 197.683-189.184 237.363-189.184 3.123 0 4.966 0.102 4.966 0.102 0.41 0 3.226-0.102 8.090-0.102 25.446 0 91.238 3.174 152.32 32.922 79.258 38.4 119.45 105.421 119.45 198.912 0 90.317-61.235 144.077-105.933 183.398-27.29 24.013-50.893 44.698-50.893 64.819 0 20.48 17.254 35.891 39.014 55.398 35.277 31.488 68.557 76.39 68.557 161.28 0 74.598-9.677 124.723-69.325 156.518 6.195 3.174 28.211 5.478 39.066 7.014 32.307 4.403 79.565 9.421 79.565 35.789v5.069h-235.469c-2.355-0.102-238.131-8.806-238.131-224.717zM481.946 191.045c4.506-71.987-57.088-125.082-149.606-131.789-93.952-6.912-171.264 35.379-175.77 107.315-2.202 34.611 13.005 68.403 42.752 95.386 30.157 27.29 71.578 44.186 116.634 47.514 5.325 0.307 10.598 0.614 15.872 0.614 86.989-0.051 145.869-51.149 150.118-119.040zM420.454 701.816c23.091-81.306-11.776-166.195-67.379-181.914-6.4-1.792-12.954-2.662-19.661-2.662-50.893 0-101.325 51.507-120.064 122.522-10.445 39.731-9.574 74.65 2.406 108.134 11.725 33.024 32.922 55.194 59.546 62.72 6.4 1.792 13.005 2.714 19.712 2.714 61.44 0 100.966-25.498 125.44-111.514zM819.2 529.067v153.6h-102.4v-153.6h-153.6v-102.4h153.6v-153.6h102.4v153.6h153.6v102.4h-153.6z" />
<glyph unicode="&#xe912;" glyph-name="instagram" d="M870.4 887.467h-716.8c-56.32 0-102.4-46.080-102.4-102.4v-716.8c0-56.371 46.080-102.4 102.4-102.4h716.8c56.32 0 102.4 46.029 102.4 102.4v716.8c0 56.32-46.080 102.4-102.4 102.4zM511.181 143.889c156.621 0 283.546 127.027 283.546 283.597 0 17.306-2.202 33.997-5.274 50.381h80.947v-369.459c0-19.558-15.872-35.328-35.482-35.328h-645.837c-19.61 0-35.482 15.77-35.482 35.328v369.459h79.309c-3.123-16.384-5.325-33.075-5.325-50.381 0-156.621 127.027-283.597 283.597-283.597zM333.978 427.486c0 97.894 79.36 177.203 177.254 177.203 97.843 0 177.254-79.309 177.254-177.203s-79.411-177.254-177.254-177.254c-97.946 0-177.254 79.36-177.254 177.254zM834.918 631.467h-82.688c-19.558 0-35.43 15.974-35.43 35.43v82.79c0 19.558 15.872 35.379 35.379 35.379h82.688c19.661 0 35.533-15.821 35.533-35.379v-82.739c0-19.507-15.872-35.482-35.482-35.482z" />
<glyph unicode="&#xe913;" glyph-name="pinterest" d="M441.19 261.445c-26.931-141.005-59.75-276.173-157.082-346.778-30.003 213.094 44.083 373.094 78.541 542.976-58.726 98.816 7.066 297.574 130.816 248.576 152.32-60.211-131.891-367.206 58.88-405.606 199.219-39.987 280.525 345.6 156.979 470.989-178.432 181.146-519.475 4.25-477.491-255.078 10.189-63.386 75.674-82.586 26.163-170.086-114.227 25.293-148.326 115.405-143.923 235.52 7.066 196.608 176.589 334.182 346.675 353.28 215.091 24.115 416.973-79.002 444.877-281.293 31.386-228.403-97.075-475.802-327.117-457.984-62.362 4.864-88.474 35.789-137.318 65.485z" />
<glyph unicode="&#xe914;" glyph-name="tumblr" d="M798.72 7.032c-39.782-18.995-75.776-32.307-107.981-39.987-32.256-7.578-67.123-11.418-104.602-11.418-42.547 0-80.179 5.478-112.896 16.282-32.717 10.906-60.57 26.419-83.712 46.49-23.091 20.224-39.117 41.574-48.026 64.205-8.909 22.682-13.363 55.603-13.363 98.611v330.496h-102.861v133.325c36.557 11.981 67.891 29.184 93.952 51.712 26.112 22.426 47.002 49.408 62.822 80.896 15.77 31.386 26.573 71.475 32.563 120.064h132.352v-238.182h220.877v-147.814h-220.877v-241.613c0-54.579 2.867-89.702 8.602-105.216 5.683-15.514 16.333-27.904 31.846-37.12 20.634-12.493 44.186-18.79 70.707-18.79 47.104 0 94.003 15.514 140.595 46.49v-148.429z" />
<glyph unicode="&#xe915;" glyph-name="twitter" d="M886.579 618.872c0.41-8.294 0.563-16.691 0.563-24.986 0-255.488-194.406-549.99-549.888-549.99-109.21 0-210.739 32-296.294 86.886 15.155-1.792 30.515-2.714 46.080-2.714 90.624 0 173.926 30.925 240.026 82.688-84.531 1.587-155.955 57.395-180.531 134.195 11.776-2.202 23.91-3.379 36.352-3.379 17.664 0 34.765 2.304 50.944 6.707-88.422 17.818-155.034 95.898-155.034 189.594 0 0.819 0 1.587 0 2.406 26.061-14.49 55.91-23.194 87.552-24.218-51.866 34.714-86.016 93.798-86.016 160.922 0 35.379 9.523 68.608 26.214 97.178 95.283-116.992 237.773-193.894 398.387-201.984-3.277 14.182-4.966 28.877-4.966 44.083 0 106.701 86.477 193.178 193.229 193.178 55.603 0 105.83-23.398 141.107-60.979 43.981 8.704 85.35 24.781 122.726 46.899-14.438-45.107-45.107-82.995-84.992-106.906 39.117 4.71 76.288 15.002 111.002 30.413-25.907-38.81-58.675-72.806-96.461-99.994z" />
<glyph unicode="&#xe916;" glyph-name="dribbble" d="M489.728 558.712c-69.53 123.597-143.923 224.41-149.35 231.834-112.179-53.043-195.891-156.416-222.054-280.934 10.547-0.205 178.278-2.202 371.405 49.101zM539.802 423.544c5.222 1.69 10.547 3.277 15.821 4.813-10.086 22.886-21.094 45.824-32.614 68.403-207.155-62.054-405.914-57.549-412.928-57.344-0.154-4.301-0.358-8.499-0.358-12.8 0-103.373 39.066-197.683 103.219-268.902l-0.256 0.307c0 0 110.080 195.277 327.117 265.523zM264.755 109.534v0.205c-2.97 2.304-6.144 4.403-9.114 6.912 5.427-4.352 9.114-7.117 9.114-7.117zM415.642 817.221c-0.358-0.102-0.768-0.205-0.768-0.205 0.307 0.102 0.717 0.102 0.717 0.102l0.051 0.102zM777.677 728.542c-70.861 62.362-163.789 100.403-265.677 100.403-32.717 0-64.41-3.994-94.822-11.315 6.144-8.192 81.664-108.493 150.426-234.701 151.654 56.781 208.947 143.974 210.074 145.613zM512-44.373c-260.096 0-470.989 210.893-470.989 470.989-0.051 260.198 210.842 471.091 470.989 471.091 260.198 0 471.040-210.893 471.040-471.091 0-260.096-210.842-470.989-471.040-470.989zM580.403 360.824c-236.083-82.278-314.061-247.706-315.648-251.085 68.301-53.299 153.907-85.299 247.194-85.299 55.706 0 108.8 11.315 157.030 31.795-5.939 35.277-29.338 158.515-85.965 305.51-0.819-0.307-1.69-0.614-2.611-0.922zM598.528 522.923c9.421-19.098 18.33-38.605 26.778-58.317 3.021-6.912 5.837-13.926 8.704-20.787 138.906 17.51 275.712-12.186 280.218-13.107-0.973 95.386-35.123 182.886-91.494 251.494-0.922-1.178-65.485-94.362-224.205-159.283zM658.483 380.331c52.787-145.203 74.189-263.27 78.285-287.283 90.317 60.979 154.522 157.696 172.39 269.824-7.987 2.56-120.627 38.246-250.675 17.459z" />
<glyph unicode="&#xe917;" glyph-name="linkedin" d="M256 785.067c0-54.374-36.352-101.171-102.451-101.171-62.208 0-102.349 44.134-102.349 98.509 0 55.808 38.912 105.062 102.4 105.062s101.171-46.592 102.4-102.4zM51.2-34.133v665.6h204.8v-665.6h-204.8zM358.4 403.934c0 79.104-2.611 145.203-5.222 202.291h184.013l9.114-88.218h3.891c25.907 41.523 89.395 102.4 195.686 102.4 129.638 0 226.918-86.784 226.918-273.51v-381.030h-204.8v351.283c0 81.613-31.078 143.872-102.4 143.872-54.374 0-81.613-44.032-95.898-80.333-5.222-13.005-6.502-31.13-6.502-49.306v-365.517h-204.8v438.067z" />
<glyph unicode="&#xe918;" glyph-name="creative-commons" d="M391.75 343.314c-20.797 0-36.5 7.603-47.1 22.806-10.7 15.097-16 35.297-16 60.497 0 55.5 20.997 83.303 63.1 83.303 8.4 0 17.5-2.803 27.3-8.403s18.097-15.4 24.8-29.4l63.1 32.8c-25.2 45.4-67 68.1-125.303 68.1-39.85 0-72.797-13.2-98.794-39.5-26.103-26.4-39.206-61.997-39.206-106.9 0-46 12.956-81.9 38.703-107.7 25.8-25.8 59.803-38.6 101.8-38.6 26.4 0 50.5 6.6 72.353 19.697 21.847 13.206 38.947 31.303 51.347 54.303l-58.1 29.4c-11.2-26.9-30.553-40.403-58-40.403zM663.447 343.314c-20.797 0-36.494 7.603-47.1 22.806-10.7 15.097-16 35.297-16 60.497 0 55.5 21.003 83.303 63.1 83.303 8.903 0 18.303-2.803 28.103-8.403 9.853-5.6 18.1-15.4 24.9-29.4l62.197 32.8c-24.7 45.4-66.197 68.1-124.497 68.1-39.8 0-72.75-13.2-98.8-39.5-26.097-26.4-39.103-61.997-39.103-106.9 0-46 12.703-81.9 38.253-107.7 25.5-25.8 59.55-38.6 102.2-38.6 25.747 0 49.647 6.6 71.45 19.697 21.903 13.206 39.3 31.303 52.203 54.303l-58.903 29.4c-11.2-26.9-30.6-40.403-58.003-40.403zM860.816 775.654c-95.159 95.038-211.659 142.525-349.463 142.525-136.134 0-251.391-47.487-345.709-142.525-96.778-98.306-145.163-214.613-145.163-348.978 0-134.353 48.384-249.85 145.163-346.506 96.778-96.687 212.034-145.016 345.709-145.016 135.344 0 252.656 48.747 351.922 146.216 93.478 92.578 140.244 207.684 140.244 345.306 0 137.634-47.575 253.972-142.703 348.978zM799.284 145.27c-81.206-80.281-176.769-120.419-286.7-120.419-109.916 0-204.622 39.75-284.181 119.219-79.556 79.434-119.337 173.662-119.337 282.606 0 108.956 40.169 203.994 120.566 285.081 77.1 78.656 171.416 117.988 282.953 117.988 111.581 0 206.306-39.331 284.244-117.988 78.747-77.819 118.103-172.825 118.103-285.081 0-113.053-38.547-206.859-115.647-281.406z" />
<glyph unicode="&#xe919;" glyph-name="setting" d="M1008.353 523.909l-99.258 25.726c-7.616 24.702-17.407 48.573-29.31 71.164l51.901 88.25c4.8 8.127 3.456 18.431-3.136 25.086l-109.177 109.241c-6.72 6.656-17.023 7.936-25.15 3.2l-88.314-51.901c-22.527 11.839-46.333 21.631-71.1 29.31l-25.598 99.258c-2.368 9.087-10.623 15.423-20.031 15.423h-154.422c-9.343 0-17.599-6.336-19.967-15.423l-25.79-99.322c-24.702-7.68-48.445-17.471-70.908-29.374l-88.314 52.029c-8.191 4.736-18.559 3.52-25.086-3.2l-109.305-109.241c-6.656-6.656-7.999-17.023-3.136-25.022l51.965-88.378c-11.903-22.463-21.631-46.269-29.374-70.972l-99.322-25.79c-9.151-2.304-15.487-10.559-15.487-19.967v-154.422c0-9.407 6.336-17.663 15.487-19.967l99.258-25.726c7.68-24.83 17.535-48.637 29.31-71.036l-52.029-88.314c-4.736-8.127-3.456-18.431 3.2-25.086l109.177-109.241c6.72-6.656 17.023-7.936 25.15-3.136l88.314 51.965c22.527-11.839 46.333-21.759 71.036-29.31l25.662-99.322c2.496-9.215 10.751-15.615 20.159-15.615h154.422c9.407 0 17.599 6.336 19.967 15.487l25.79 99.322c24.766 7.68 48.573 17.471 71.1 29.31l88.186-51.965c8.191-4.672 18.431-3.456 25.086 3.2l109.241 109.113c6.72 6.656 7.999 16.959 3.2 25.086l-51.965 88.314c11.967 22.527 21.759 46.333 29.374 71.036l99.258 25.726c9.215 2.496 15.551 10.751 15.551 20.159v154.422c-0.128 9.279-6.464 17.599-15.615 19.903v0 0 0zM512 200.153c-124.984 0-226.546 101.626-226.546 226.546s101.626 226.61 226.546 226.61c124.92 0 226.482-101.626 226.482-226.546s-101.626-226.61-226.482-226.61v0 0z" />
<glyph unicode="&#xe91a;" glyph-name="app" d="M853.333-0h-213.333c-46.933 0-85.333 38.4-85.333 85.333v213.333c0 46.933 38.4 85.333 85.333 85.333h213.333c46.933 0 85.333-38.4 85.333-85.333v-213.333c0-46.933-38.4-85.333-85.333-85.333zM853.333 469.334h-213.333c-46.933 0-85.333 38.4-85.333 85.333v213.333c0 46.933 38.4 85.333 85.333 85.333h213.333c46.933 0 85.333-38.4 85.333-85.333v-213.333c0-46.933-38.4-85.333-85.333-85.333zM384-0h-213.333c-46.933 0-85.333 38.4-85.333 85.333v213.333c0 46.933 38.4 85.333 85.333 85.333h213.333c46.933 0 85.333-38.4 85.333-85.333v-213.333c0-46.933-38.4-85.333-85.333-85.333zM384 469.334h-213.333c-46.933 0-85.333 38.4-85.333 85.333v213.333c0 46.933 38.4 85.333 85.333 85.333h213.333c46.933 0 85.333-38.4 85.333-85.333v-213.333c0-46.933-38.4-85.333-85.333-85.333z" />
<glyph unicode="&#xe91b;" glyph-name="tag" d="M194.889 938.667v-1024l317.082 224.864 317.139-224.864v1024z" />
<glyph unicode="&#xe91c;" glyph-name="label" d="M853.33 836.267h-283.74c-18.77 0-45.005-10.875-58.266-24.125l-389.007-389.007c-26.563-26.532-26.563-70.031 0-96.532l289.649-289.638c26.501-26.532 69.96-26.532 96.502 0.031l389.007 388.946c13.251 13.251 24.125 39.526 24.125 58.255v283.802c0 37.54-30.73 68.27-68.27 68.27zM716.79 563.197c-37.7 0.012-68.258 30.57-68.27 68.269v0.001c0 37.734 30.566 68.27 68.27 68.27s68.27-30.566 68.27-68.27c0-37.705-30.566-68.27-68.27-68.27v0z" />
<glyph unicode="&#xe91d;" glyph-name="publish" d="M945.93 807.908c-7.638 15.276-26.279 21.619-41.684 13.981l-811.934-403.249c-15.276-7.638-21.619-26.279-13.981-41.684 1.683-3.365 3.884-6.343 6.473-8.803 3.365-3.237 7.378-5.696 12.169-7.249l273.148-85.828 41.943 52.041-222.919 70.035 611.539 303.957-327.131-395.999c-0.721-0.842-1.404-1.772-2.015-2.751l-0.056-0.097-37.801-46.991v-194.957c0-17.218 13.852-31.069 31.069-31.069s31.069 13.852 31.069 31.069v175.54l297.097-93.206c3.495-1.036 6.991-1.553 10.485-1.423 15.017-0.388 28.609 10.227 31.457 25.502l113.79 621.507c0.388 2.071 0.517 4.272 0.517 6.343-0.13 4.402-1.036 9.062-3.237 13.333zM779.969 211.774l-240.396 75.472 326.741 395.611-86.346-471.082z" />
<glyph unicode="&#xe91e;" glyph-name="date" horiz-adv-x="1028" d="M937.6 852.267h-169.6v44.8c0 22.4-19.2 41.6-41.6 41.6s-41.6-19.2-41.6-41.6v-41.6h-342.4v41.6c0 22.4-19.2 41.6-41.6 41.6-25.6 0-44.8-19.2-44.8-41.6v-41.6h-169.6c-48-3.2-86.4-41.6-86.4-86.4v-768c0-48 38.4-86.4 86.4-86.4h854.4c48 0 86.4 38.4 86.4 86.4v768c-3.2 44.8-41.6 83.2-89.6 83.2zM937.6 769.067v-86.4h-169.6v86.4h169.6zM681.6 769.067v-86.4h-339.2v86.4h339.2zM86.4 769.067h169.6v-86.4h-169.6v86.4zM86.4 1.067v595.2h854.4v-598.4h-854.4z" />
<glyph unicode="&#xe91f;" glyph-name="picture" d="M334.368 466.619c-76.712 0-137.68 60.976-137.68 137.68 0 76.712 60.968 137.68 137.68 137.68 76.704 0 137.68-60.968 137.68-137.68 0-76.704-60.976-137.68-137.68-137.68zM334.368 663.307c-33.44 0-59.008-25.568-59.008-59.008s25.568-59.008 59.008-59.008 59.008 25.568 59.008 59.008-25.568 59.008-59.008 59.008zM904.76-84.101h-786.744c-64.912 0-118.016 53.104-118.016 118.008v786.744c0 64.912 53.104 118.016 118.016 118.016h786.744c64.904 0 118.008-53.104 118.008-118.016v-786.744c0-64.904-53.104-118.008-118.008-118.008zM118.016 859.995c-21.704-0.063-39.281-17.64-39.344-39.338v-786.75c0.068-21.7 17.643-39.273 39.338-39.336h786.75c21.697 0.068 39.268 17.639 39.336 39.329v786.751c-0.063 21.701-17.636 39.276-39.33 39.344h-786.75zM436.64 175.523c-31.464 0-62.936 13.768-86.536 37.368l-47.2 49.176c-7.302 7.292-17.384 11.802-28.52 11.802s-21.218-4.51-28.52-11.803v0l-60.984-64.92c-15.736-15.728-39.336-15.728-55.072-1.96-15.736 13.76-15.736 39.336-1.968 55.072l60.968 64.904c21.64 23.6 53.112 37.368 84.576 37.368 31.472 0 62.944-13.76 86.544-37.368l47.2-49.176c7.302-7.292 17.384-11.802 28.52-11.802s21.218 4.51 28.52 11.803v0l196.688 206.528c21.64 23.6 53.112 37.36 86.544 37.36 33.44 0 62.944-13.76 86.544-37.36l178.984-188.824c15.736-15.736 13.768-41.304-1.968-55.072-15.736-15.736-41.304-13.76-55.072 1.968l-178.976 188.824c-7.302 7.292-17.384 11.802-28.52 11.802s-21.218-4.51-28.52-11.803v0l-196.688-208.48c-23.6-21.64-55.072-35.408-86.536-35.408z" />
<glyph unicode="&#xe920;" glyph-name="strikethrough" d="M1005.728 426.667q8 0 13.152-5.152t5.152-13.152v-36.576q0-8-5.152-13.152t-13.152-5.152h-987.424q-8 0-13.152 5.152t-5.152 13.152v36.576q0 8 5.152 13.152t13.152 5.152h987.424zM276 463.243q-16 20-29.152 45.728-27.424 55.424-27.424 107.424 0 103.424 76.576 176.576 76 72.576 224.576 72.576 28.576 0 95.424-10.848 37.728-6.848 101.152-27.424 5.728-21.728 12-67.424 8-70.272 8-104.576 0-10.272-2.848-25.728l-6.848-1.728-48 3.424-8 1.152q-28.576 85.152-58.848 117.152-50.272 52-120 52-65.152 0-104-33.728-38.272-33.152-38.272-83.424 0-41.728 37.728-80t159.424-73.728q39.424-11.424 98.848-37.728 33.152-16 54.272-29.728h-424.576zM565.728 316.939h234.848q4-22.272 4-52.576 0-63.424-23.424-121.152-13.152-31.424-40.576-59.424-21.152-20-62.272-46.272-45.728-27.424-87.424-37.728-45.728-12-116-12-65.152 0-111.424 13.152l-80 22.848q-32.576 9.152-41.152 16-4.576 4.576-4.576 12.576v7.424q0 61.728-1.152 89.152-0.576 17.152 0 38.848l1.152 21.152v25.152l58.272 1.152q8.576-19.424 17.152-40.576t12.864-32 7.136-15.424q20-32.576 45.728-53.728 24.576-20.576 60-32.576 33.728-12.576 75.424-12.576 36.576 0 79.424 15.424 44 14.848 69.728 49.152 26.848 34.848 26.848 73.728 0 48-46.272 89.728-19.424 16.576-78.272 40.576z" />
<glyph unicode="&#xe921;" glyph-name="table" d="M329.143 152.381v109.714c0 10.277-8.009 18.286-18.286 18.286h-182.857c-10.277 0-18.286-8.009-18.286-18.286v-109.714c0-10.277 8.009-18.286 18.286-18.286h182.857c10.277 0 18.286 8.009 18.286 18.286zM329.143 371.81v109.714c0 10.277-8.009 18.286-18.286 18.286h-182.857c-10.277 0-18.286-8.009-18.286-18.286v-109.714c0-10.277 8.009-18.286 18.286-18.286h182.857c10.277 0 18.286 8.009 18.286 18.286zM621.714 152.381v109.714c0 10.277-8.009 18.286-18.286 18.286h-182.857c-10.277 0-18.286-8.009-18.286-18.286v-109.714c0-10.277 8.009-18.286 18.286-18.286h182.857c10.277 0 18.286 8.009 18.286 18.286zM329.143 591.238v109.714c0 10.277-8.009 18.286-18.286 18.286h-182.857c-10.277 0-18.286-8.009-18.286-18.286v-109.714c0-10.277 8.009-18.286 18.286-18.286h182.857c10.277 0 18.286 8.009 18.286 18.286zM621.714 371.81v109.714c0 10.277-8.009 18.286-18.286 18.286h-182.857c-10.277 0-18.286-8.009-18.286-18.286v-109.714c0-10.277 8.009-18.286 18.286-18.286h182.857c10.277 0 18.286 8.009 18.286 18.286zM914.286 152.381v109.714c0 10.277-8.009 18.286-18.286 18.286h-182.857c-10.277 0-18.286-8.009-18.286-18.286v-109.714c0-10.277 8.009-18.286 18.286-18.286h182.857c10.277 0 18.286 8.009 18.286 18.286zM621.714 591.238v109.714c0 10.277-8.009 18.286-18.286 18.286h-182.857c-10.277 0-18.286-8.009-18.286-18.286v-109.714c0-10.277 8.009-18.286 18.286-18.286h182.857c10.277 0 18.286 8.009 18.286 18.286zM914.286 371.81v109.714c0 10.277-8.009 18.286-18.286 18.286h-182.857c-10.277 0-18.286-8.009-18.286-18.286v-109.714c0-10.277 8.009-18.286 18.286-18.286h182.857c10.277 0 18.286 8.009 18.286 18.286zM914.286 591.238v109.714c0 10.277-8.009 18.286-18.286 18.286h-182.857c-10.277 0-18.286-8.009-18.286-18.286v-109.714c0-10.277 8.009-18.286 18.286-18.286h182.857c10.277 0 18.286 8.009 18.286 18.286zM987.429 774.096v-621.714c0-50.286-41.143-91.429-91.429-91.429h-768c-50.436 0.145-91.283 40.993-91.429 91.415v621.728c0 50.286 41.143 91.429 91.429 91.429h768c50.286 0 91.429-41.143 91.429-91.429z" />
<glyph unicode="&#xe922;" glyph-name="code" horiz-adv-x="1098" d="M352.549 139.216l-28.599-28.599q-5.705-5.705-13.166-5.705t-13.166 5.705l-266.313 266.313q-5.705 5.705-5.705 13.166t5.705 13.166l266.313 266.313q5.705 5.705 13.166 5.705t13.166-5.705l28.599-28.599q5.705-5.705 5.705-13.166t-5.705-13.166l-224.549-224.549 224.549-224.549q5.705-5.705 5.705-13.166t-5.705-13.166zM690.322 748.934l-213.138-737.719q-2.267-7.461-8.85-11.118t-13.458-1.463l-35.401 9.728q-7.461 2.267-11.118 8.85t-1.463 13.97l213.138 737.719q2.267 7.461 8.85 11.118t13.458 1.463l35.401-9.728q7.461-2.267 11.118-8.85t1.463-13.97zM1065.691 376.93l-266.313-266.313q-5.705-5.705-13.166-5.705t-13.166 5.705l-28.599 28.599q-5.705 5.705-5.705 13.166t5.705 13.166l224.549 224.549-224.549 224.549q-5.705 5.705-5.705 13.166t5.705 13.166l28.599 28.599q5.705 5.705 13.166 5.705t13.166-5.705l266.313-266.313q5.705-5.705 5.705-13.166t-5.705-13.166z" />
<glyph unicode="&#xe923;" glyph-name="italic" d="M219.429-11.047l9.714 48.571q12.571 4 35.143 9.429t41.143 10.857 34 13.429q16 20 23.429 57.714 0.571 4 35.429 165.143t65.143 310.571 29.714 169.429v14.286q-13.714 7.429-31.143 10.571t-39.714 4.571-33.143 3.143l10.857 58.857q18.857-1.143 68.571-3.714t85.429-4 68.857-1.429q27.429 0 56.286 1.429t69.143 4 56.286 3.714q-2.857-22.286-10.857-50.857-17.143-5.714-58-16.286t-62-19.143q-4.571-10.857-8-24.286t-5.143-22.857-4.286-26-3.714-24q-15.429-84.571-50-239.714t-44.286-203.143q-1.143-5.143-7.429-33.143t-11.429-51.429-9.143-47.714-3.429-32.857l0.571-10.286q9.714-2.286 105.714-17.714-1.714-25.143-9.143-56.571-6.286 0-18.571-0.857t-18.571-0.857q-16.571 0-49.714 5.714t-49.143 5.714q-78.857 1.143-117.714 1.143-29.143 0-81.714-5.143t-69.143-6.286z" />
<glyph unicode="&#xe924;" glyph-name="list" d="M168.57 118.067c0-14.34-9.56-23.89-23.89-23.89h-47.79c-14.34 0-23.89 9.55-23.89 23.89v47.79c0 14.34 9.56 23.89 23.89 23.89h47.79c14.34 0 23.89-9.56 23.89-23.89zM168.57 402.397c0-14.34-9.56-23.89-23.89-23.89h-47.79c-14.34 0-23.89 9.56-23.89 23.89v47.79c0 14.34 9.56 23.89 23.89 23.89h47.79c14.34 0 23.89-9.56 23.89-23.89zM168.57 689.117c0-14.34-9.56-23.89-23.89-23.89h-47.79c-14.34 0-23.89 9.56-23.89 23.89v47.79c0 14.34 9.56 23.89 23.89 23.89h47.79c14.34 0 23.89-9.56 23.89-23.89zM969 118.067c0-14.34-7.17-23.89-21.5-23.89h-633.18c-14.34 0-23.89 9.56-23.89 23.89v47.79c0 14.34 9.56 23.89 23.89 23.89h630.78c14.34 0 23.89-9.56 23.89-23.89zM969 402.397c0-14.34-7.17-23.89-21.5-23.89h-633.18c-14.34 0-23.89 9.56-23.89 23.89v47.79c0 14.34 9.56 23.89 23.89 23.89h630.78c14.34 0 23.89-9.56 23.89-23.89zM969 689.117c0-14.34-7.17-23.89-21.5-23.89h-633.18c-14.34 0-23.89 9.56-23.89 23.89v47.79c0 14.34 9.56 23.89 23.89 23.89h630.78c14.34 0 23.89-9.56 23.89-23.89z" />
<glyph unicode="&#xe925;" glyph-name="order-list" d="M216 510.667h-116c-2.4 0-4-1.6-4-4v-36c0-2.4 1.6-4 4-4h68l-70.4-77.6c-1.6-1.6-2.4-3.2-2.4-5.6v-36.8c0-2.4 1.6-4 4-4h116.8c2.4 0 4 1.6 4 4v36c0 2.4-1.6 4-4 4h-68.8l70.4 77.6c1.6 1.6 2.4 3.2 2.4 5.6v36.8c0 2.4-1.6 4-4 4zM100 750.667h38.4v-120c0-2.4 1.6-4 4-4h40c2.4 0 4 1.6 4 4v156c0 4.8-3.2 8-8 8h-77.6c-2.4 0-4-1.6-4-4v-36c-0.8-2.4 0.8-4 3.2-4zM216 226.667h-116c-2.4 0-4-1.6-4-4v-34.4c0-2.4 1.6-4 4-4h72.8v-20.8h-36c-2.4 0-4-1.6-4-4v-34.4c0-2.4 1.6-4 4-4h36v-21.6h-72c-2.4 0-4-1.6-4-4v-34.4c0-2.4 1.6-4 4-4h115.2c2.4 0 4 1.6 4 4v160c0 4-1.6 5.6-4 5.6zM920 462.667h-584c-4 0-8-3.2-8-8v-56c0-4.8 4-8 8-8h584c4.8 0 8 3.2 8 8v56c0 4.8-3.2 8-8 8zM920 746.667h-584c-4 0-8-3.2-8-8v-56c0-4.8 4-8 8-8h584c4.8 0 8 3.2 8 8v56c0 4.8-3.2 8-8 8zM920 178.667h-584c-4 0-8-4-8-8v-56c0-4 4-8 8-8h584c4.8 0 8 4 8 8v56c0 4-3.2 8-8 8z" />
<glyph unicode="&#xe926;" glyph-name="quotes" d="M945.773 423.154h-162.849v38.003c0 97.987 31.555 143.631 99.342 143.631 11.632 0 21.042 9.428 21.042 21.042v112.473c0 11.614-9.41 21.024-21.042 21.024-92.316 0-166.732-29.586-221.208-87.909-54.078-57.889-81.515-158.062-81.515-297.701v-284.48c0-11.614 9.465-21.024 21.097-21.024h345.114c11.614 0 21.079 9.41 21.079 21.024v312.837c0 11.635-9.427 21.068-21.060 21.079h-0.001zM429.176 423.154h-162.849v38.003c0 97.987 31.573 143.631 99.36 143.631 11.614 0 21.042 9.428 21.042 21.042v112.473c0 11.614-9.428 21.024-21.042 21.024-93.111 0-167.762-29.586-221.894-87.927-53.645-57.925-80.883-158.098-80.883-297.683v-284.48c0-11.614 9.447-21.024 21.097-21.024h345.15c11.614 0 21.061 9.41 21.061 21.024v312.837c0 0.005 0 0.012 0 0.018 0 11.625-9.419 21.050-21.041 21.061h-0.001z" />
<glyph unicode="&#xe927;" glyph-name="bold" d="M427.040 69.515q42.272-18.272 80-18.272 214.848 0 214.848 191.424 0 65.152-23.424 102.848-15.424 25.152-35.136 42.272t-38.56 26.56-46.016 14.272-48 6.016-54.016 1.152q-41.728 0-57.728-5.728 0-30.272-0.288-90.848t-0.288-90.272q0-4.576-0.576-38.56t-0.288-55.136 2.56-47.712 6.848-38.016zM419.040 495.819q24-4 62.272-4 46.848 0 81.728 7.424t62.848 25.44 42.56 51.136 14.56 81.152q0 40-16.576 70.016t-45.152 46.848-61.728 24.864-70.848 8q-28.576 0-74.272-7.424 0-28.576 2.272-86.272t2.272-86.848q0-15.424-0.288-45.728t-0.288-45.152q0-26.272 0.576-39.424zM109.888-12.181l1.152 53.728q8.576 2.272 48.576 9.152t60.576 15.424q4 6.848 7.136 15.424t4.864 19.136 3.136 18.56 1.728 21.44 0.288 19.424v37.44q0 561.152-12.576 585.728-2.272 4.576-12.576 8.288t-25.44 6.272-28.288 4-27.712 2.56-17.44 1.728l-2.272 47.424q56 1.152 194.272 6.56t213.152 5.44q13.152 0 38.848-0.288t38.848-0.288q40 0 78.016-7.424t73.44-24 61.728-40.576 42.272-59.712 16-78.56q0-29.728-9.44-54.56t-22.272-41.152-36.864-32.864-41.728-25.728-48-22.848q88-20 146.56-76.576t58.56-141.728q0-57.152-20-102.56t-53.44-74.56-78.848-48.864-93.44-27.712-100.576-8q-25.152 0-75.424 1.728t-75.424 1.728q-60.576 0-175.424-6.272t-132-6.848z" />
<glyph unicode="&#xe928;" glyph-name="underline" d="M100.571 811.238q-21.143 1.143-25.714 2.286l-1.714 50.286q7.429 0.571 22.857 0.571 34.286 0 64-2.286 75.429-4 94.857-4 49.143 0 96 1.714 66.286 2.286 83.429 2.857 32 0 49.143 1.143l-0.571-8 1.143-36.571v-5.143q-34.286-5.143-70.857-5.143-34.286 0-45.143-14.286-7.429-8-7.429-75.429 0-7.429 0.286-18.571t0.286-14.571l0.571-130.857 8-160q3.429-70.857 29.143-115.429 20-33.714 54.857-52.571 50.286-26.857 101.143-26.857 59.429 0 109.143 16 32 10.286 56.571 29.143 27.429 20.571 37.143 36.571 20.571 32 30.286 65.143 12 41.714 12 130.857 0 45.143-2 73.143t-6.286 70-7.714 91.143l-2.286 33.714q-2.857 38.286-13.714 50.286-19.429 20-44 19.429l-57.143-1.143-8 1.714 1.143 49.143h48l117.143-5.714q43.429-1.714 112 5.714l10.286-1.143q3.429-21.714 3.429-29.143 0-4-2.286-17.714-25.714-6.857-48-7.429-41.714-6.286-45.143-9.714-8.571-8.571-8.571-23.429 0-4 0.857-15.429t0.857-17.714q4.571-10.857 12.571-226.286 3.429-111.429-8.571-173.714-8.571-43.429-23.429-69.714-21.714-37.143-64-70.286-42.857-32.571-104-50.857-62.286-18.857-145.714-18.857-95.429 0-162.286 26.286-68 26.857-102.286 69.714-34.857 43.429-47.429 111.429-9.143 45.714-9.143 135.429v190.286q0 107.429-9.714 121.714-14.286 20.571-84 22.286zM950.857 6.096v36.571q0 8-5.143 13.143t-13.143 5.143h-841.143q-8 0-13.143-5.143t-5.143-13.143v-36.571q0-8 5.143-13.143t13.143-5.143h841.143q8 0 13.143 5.143t5.143 13.143z" />
<glyph unicode="&#xe929;" glyph-name="link" d="M414.1 106.867c-61.3-61.3-160.7-61.3-222 0s-61.3 160.7 0 222l140.7 140.7c15.63 15.63 15.63 40.97 0 56.6s-40.97 15.63-56.6 0l-140.7-140.7c-92.6-92.6-92.6-242.6 0-335.2s242.6-92.6 335.2 0l140.7 140.7c15.63 15.63 15.63 40.97 0 56.6s-40.97 15.63-56.6 0l-140.7-140.7zM887.8 802.667c-92.6 92.6-242.6 92.6-335.2 0l-140.7-140.7c-15.63-15.63-15.63-40.97 0-56.6s40.97-15.63 56.6 0l140.7 140.7c61.3 61.3 160.7 61.3 222 0s61.3-160.7 0-222l-140.7-140.7c-15.63-15.63-15.63-40.97 0-56.6s40.97-15.63 56.6 0l140.7 140.7c92.6 92.6 92.6 242.7 0 335.2zM320 234.867c17.2-17.2 45-17.2 62.2 0l321 321c17.2 17.2 17.2 45 0 62.2s-45 17.2-62.2 0l-321-321c-17.2-17.1-17.2-45 0-62.2z" />
<glyph unicode="&#xe92a;" glyph-name="line" d="M912 466.667v-80c0-4.418-3.582-8-8-8v0h-784c-4.418 0-8 3.582-8 8v0 80c0 4.418 3.582 8 8 8v0h784c4.418 0 8-3.582 8-8v0z" />
<glyph unicode="&#xe92b;" glyph-name="header" d="M905 42.667q-22 0-66.25 1.75t-66.75 1.75q-22 0-66-1.75t-66-1.75q-12 0-18.5 10.25t-6.5 22.75q0 15.5 8.5 23t19.5 8.5 25.5 3.5 22.5 7.5q16.5 10.5 16.5 70l-0.5 195.5q0 10.5-0.5 15.5-6.5 2-25 2h-337.5q-19 0-25.5-2-0.5-5-0.5-15.5l-0.5-185.5q0-71 18.5-82 8-5 24-6.5t28.5-1.75 22.5-7.5 10-22.75q0-13-6.25-24t-18.25-11q-23.5 0-69.75 1.75t-69.25 1.75q-21.5 0-64-1.75t-63.5-1.75q-11.5 0-17.75 10.5t-6.25 22.5q0 15 7.75 22.5t18 8.75 23.75 3.75 21 7.5q16.5 11.5 16.5 71.5l-0.5 28.5v406.5q0 1.5 2.5 13t0 18.25-0.75 19.25-1.75 21-3.25 18.25-5.5 15.75-8 9q-7.5 5-22.5 6t-26.5 1-20.5 7-9 22.5q0 13 6 24t18 11q23 0 69.25-1.75t69.25-1.75q21 0 63.25 1.75t63.25 1.75q12.5 0 18.75-11t6.25-24q0-15-8.5-21.75t-19.25-7.25-24.75-2-21.5-6.5q-17.5-10.5-17.5-80l0.5-160q0-10.5 0.5-16 6.5-1.5 19.5-1.5h349.5q12.5 0 19 1.5 0.5 5.5 0.5 16l0.5 160q0 69.5-17.5 80-9 5.5-29.25 6.25t-33 6.5-12.75 24.75q0 13 6.25 24t18.75 11q22 0 66-1.75t66-1.75q21.5 0 64.5 1.75t64.5 1.75q12.5 0 18.75-11t6.25-24q0-15-8.75-22t-20-7.25-25.75-1.5-22-6.25q-17.5-11.5-17.5-80.5l0.5-471.5q0-59.5 17-70 8-5 23-6.75t26.75-2.25 20.75-7.75 9-22.25q0-13-6-24t-18-11z" />
<glyph unicode="&#xe92c;" glyph-name="fullscreen" horiz-adv-x="1071" d="M701.559 794.017h152.503c12.36 0 25.258 1.002 37.576-0.464l-10.834 1.456c4.953-0.729 9.408-1.96 13.621-3.665l-0.394 0.141-9.736 4.109c4.863-2.087 9.057-4.568 12.879-7.508l-0.139 0.103-8.25 6.373c3.511-2.821 6.603-5.912 9.333-9.306l0.091-0.116-6.375 8.25c2.837-3.683 5.318-7.877 7.258-12.359l0.147-0.381-4.111 9.736c1.566-3.82 2.797-8.276 3.485-12.91l0.039-0.32-1.456 10.837c0.807-6.793 0.463-13.775 0.463-20.605v-169.466c0-22.22 18.543-40.762 40.762-40.762s40.763 18.543 40.763 40.762v180.16c0 3.32-0.070 6.602-0.463 9.911-0.7 5.885-1.343 11.852-2.806 17.616-1.41 5.562-4.085 11.012-6.284 16.187-3.524 8.297-8.982 15.002-14.613 22.034-16.672 20.823-45.407 31.711-71.481 31.711h-181.978c-22.22 0-40.762-18.543-40.762-40.762s18.542-40.763 40.762-40.763zM362.067 62.321h-152.498c-12.364 0-25.259-1.003-37.577 0.463l10.836-1.456c-4.954 0.728-9.41 1.959-13.623 3.665l0.393-0.141 9.737-4.11c-4.863 2.086-9.057 4.567-12.879 7.506l0.139-0.102 8.25-6.375c-3.51 2.821-6.601 5.913-9.331 9.307l-0.091 0.117 6.373-8.25c-2.837 3.683-5.318 7.877-7.258 12.359l-0.147 0.381 4.11-9.736c-1.565 3.818-2.796 8.274-3.486 12.905l-0.039 0.322 1.456-10.834c-0.807 6.795-0.463 13.777-0.463 20.605v169.48c0 22.22-18.543 40.763-40.762 40.763s-40.763-18.543-40.763-40.763v-180.174c0-3.32 0.070-6.601 0.463-9.911 0.699-5.884 1.343-11.852 2.804-17.616 1.41-5.562 4.087-11.012 6.286-16.187 3.524-8.297 8.982-15 14.611-22.036 16.672-20.821 45.41-31.709 71.481-31.709h181.974c22.22 0 40.762 18.543 40.762 40.763s-18.538 40.764-40.758 40.764zM362.067 875.54h-180.162c-3.32 0-6.601-0.070-9.911-0.463-5.884-0.699-11.852-1.343-17.616-2.804-5.562-1.41-11.012-4.087-16.187-6.286-8.297-3.524-15.002-8.982-22.034-14.611-20.823-16.674-31.709-45.41-31.709-71.483v-181.97c0-22.22 18.543-40.762 40.763-40.762s40.762 18.543 40.762 40.762v152.498c0 12.363-1.003 25.256 0.463 37.575l-1.455-10.837c0.729 4.954 1.959 9.411 3.664 13.624l-0.141-0.394-4.108-9.737c2.087 4.863 4.568 9.057 7.507 12.879l-0.103-0.139-6.373-8.25c2.821 3.51 5.912 6.601 9.306 9.331l0.116 0.091-8.25-6.373c3.684 2.837 7.877 5.317 12.358 7.258l0.382 0.147-9.736-4.11c3.82 1.565 8.276 2.796 12.909 3.486l0.321 0.039-10.837-1.455c6.793 0.807 13.775 0.462 20.605 0.462h169.469c22.22 0 40.762 18.543 40.762 40.763s-18.544 40.76-40.764 40.76zM701.559-19.203h180.166c3.32 0 6.601 0.070 9.911 0.463 5.884 0.7 11.852 1.343 17.616 2.806 5.562 1.41 11.012 4.085 16.187 6.284 8.297 3.524 15 8.982 22.036 14.613 20.821 16.674 31.709 45.407 31.709 71.481v181.986c0 22.22-18.543 40.763-40.763 40.763s-40.762-18.543-40.762-40.763v-152.508c0-12.364 1.003-25.26-0.463-37.58l1.456 10.835c-0.728-4.953-1.959-9.408-3.665-13.62l0.141 0.393 4.11 9.736c-2.086-4.863-4.566-9.057-7.506-12.878l0.102 0.138 6.375 8.25c-2.821-3.511-5.913-6.603-9.307-9.333l-0.117-0.091 8.25 6.375c-3.683-2.838-7.877-5.318-12.359-7.257l-0.381-0.147 9.736 4.11c-3.819-1.565-8.274-2.796-12.906-3.485l-0.321-0.039 10.834 1.456c-6.795-0.807-13.775-0.463-20.605-0.463h-169.472c-22.22 0-40.762-18.543-40.762-40.762s18.54-40.763 40.76-40.763z" />
<glyph unicode="&#xe92d;" glyph-name="preview" d="M512 330.667c-53.019 0-96 42.981-96 96s42.981 96 96 96v0c53.019 0 96-42.981 96-96s-42.981-96-96-96v0zM512 586.667c-88.224 0-160-71.776-160-160s71.776-160 160-160 160 71.776 160 160-71.776 160-160 160zM512 138.667c-212.064 0-384 256-384 288s171.936 288 384 288 384-256 384-288-171.936-288-384-288zM512 778.667c-246.752 0-448-283.008-448-352s201.248-352 448-352 448 283.008 448 352c0 68.992-201.248 352-448 352z" />
<glyph unicode="&#xe92e;" glyph-name="no-preview" d="M1004.456 385.797c16.725 26.006 16.725 57.59 0 83.597-146.804 217.366-312.198 328.835-492.456 328.835-85.482 0-167.248-24.153-245.301-74.312l-96.632 96.604c-14.87 14.861-37.168 14.861-52.033 0-14.87-14.865-14.87-37.157 0-52.018l87.343-87.317c-65.043-53.879-126.365-124.474-185.833-213.646-16.725-26.013-16.725-57.59 0-83.602 146.81-217.361 312.198-328.831 492.456-328.831 85.482 0 167.248 24.153 245.301 74.31l96.632-96.602c14.87-14.865 37.168-14.865 52.032 0 14.87 14.86 14.87 37.152 0 52.018l-87.342 87.317c65.043 53.872 126.365 124.47 185.833 213.646zM766.757 220.667l-124.403 124.5c12.999 22.3 20.421 48.317 20.421 76.188 0 81.761-66.838 148.653-148.534 148.653-27.849 0-53.846-7.434-76.126-20.437l-115.115 115.208c63.128 35.306 126.255 53.888 191.241 53.888 154.105 0 298.934-100.343 430.759-297.312-57.558-85.481-116.974-152.373-178.243-200.688zM488 495.826c5.52 1.841 12.881 1.841 18.401 1.841 40.48 0 73.599-33.119 73.599-73.599 0-7.361-1.836-12.881-1.836-18.401l-90.164 90.159zM533 360.503c-5.52-1.836-12.881-1.836-18.401-1.836-40.48 0-73.599 33.12-73.599 73.6 0 7.356 1.841 12.881 1.841 18.4l90.159-90.164zM509.759 130.667c-154.105 0-298.929 100.347-430.759 297.317 57.558 85.476 116.974 152.375 178.249 200.683l124.397-124.496c-12.999-22.303-20.423-48.316-20.423-76.187 0-81.762 66.84-148.66 148.536-148.66 27.849 0 53.846 7.433 76.125 20.442l115.116-115.208c-63.128-35.307-126.255-53.891-191.241-53.891z" />
<glyph unicode="&#xe92f;" glyph-name="exit" d="M315.52 266.027h-234.688c-9.317-0.036-16.86-7.579-16.896-16.893v-50.691c0-9.28 7.616-16.896 16.896-16.896h183.872v-185.984c0-9.28 7.616-16.896 16.896-16.896h50.688c0 0 0 0 0 0 9.344 0 16.924 7.557 16.96 16.893v236.675c0 0.019 0 0.042 0 0.064 0 18.663-15.129 33.792-33.792 33.792-0.023 0-0.045 0-0.068 0h0.003zM332.288 874.667h-50.688c-9.317-0.036-16.86-7.579-16.896-16.893v-185.987h-183.808c-9.317-0.036-16.86-7.579-16.896-16.893v-50.691c0-9.344 7.616-16.96 16.896-16.96h234.624c0.019 0 0.042 0 0.064 0 18.663 0 33.792 15.129 33.792 33.792 0 0.023 0 0.045 0 0.068v-0.003 236.672c-0.036 9.339-7.616 16.896-16.96 16.896-0.023 0-0.045 0-0.068 0h0.003zM943.040 266.027h-234.56c-0.019 0-0.042 0-0.064 0-18.663 0-33.792-15.129-33.792-33.792 0 0 0 0 0 0v0-236.672c0-9.28 7.68-16.896 16.96-16.896h50.688c9.317 0.036 16.86 7.579 16.896 16.893v185.987h183.872c9.317 0.036 16.86 7.579 16.896 16.893v50.691c0 0 0 0 0 0 0 9.344-7.557 16.924-16.893 16.96h-0.003zM943.040 671.787h-183.872v185.984c-0.035 9.272-7.506 16.788-16.758 16.896h-50.698c0 0 0 0 0 0-9.344 0-16.924-7.557-16.96-16.893v-236.675c0-18.688 15.168-33.856 33.856-33.856h234.56c9.312 0.073 16.832 7.638 16.832 16.96 0 0 0 0 0 0v0 50.688c-0.036 9.317-7.579 16.86-16.893 16.896h-0.003z" />
<glyph unicode="&#xe930;" glyph-name="picture-upload" d="M669.498-85.333h-551.272c-65.232 0.071-118.090 52.949-118.129 118.181v787.65c0.052 65.227 52.905 118.092 118.122 118.165h787.537c65.224-0.073 118.077-52.938 118.129-118.16v-551.457c0-0.002 0-0.004 0-0.006 0-21.748-17.63-39.378-39.378-39.378s-39.378 17.63-39.378 39.378c0 0.002 0 0.004 0 0.007v0 551.452c-0.016 21.742-17.633 39.365-39.371 39.39h-787.532c-21.742-0.025-39.359-17.647-39.378-39.388v-787.648c0.018-21.743 17.636-39.365 39.375-39.39h551.274c21.756-0.004 39.391-17.641 39.391-39.398s-17.635-39.394-39.391-39.398v0zM39.471 151.017c-0.047 0-0.102 0-0.158 0-10.818 0-20.603 4.425-27.644 11.563l-0.004 0.004c-7.128 7.139-11.537 16.996-11.537 27.882s4.408 20.743 11.537 27.883v0l196.145 196.077c21.341 21.394 50.851 34.63 83.453 34.63 19.236 0 37.396-4.608 53.436-12.78l-0.668 0.309 213.615-106.842c5.116-2.648 11.169-4.2 17.584-4.2 10.839 0 20.643 4.432 27.697 11.583l353.655 353.759c7.109 6.992 16.868 11.308 27.635 11.308 21.772 0 39.422-17.65 39.422-39.422 0-10.773-4.321-20.537-11.325-27.652l-353.642-353.75c-21.341-21.393-50.85-34.628-83.451-34.628-19.235 0-37.394 4.607-53.433 12.779l0.669-0.309-213.623 106.842c-5.116 2.647-11.168 4.198-17.582 4.198-10.837 0-20.64-4.43-27.695-11.578l-196.272-196.089c-7.045-7.143-16.83-11.568-27.648-11.568-0.057 0-0.114 0-0.171 0h0.009zM354.485 544.902c-0.011 0-0.023 0-0.036 0-65.261 0-118.165 52.904-118.165 118.165s52.904 118.165 118.165 118.165c65.261 0 118.165-52.904 118.165-118.165v0c-0.096-65.21-52.922-118.049-118.118-118.165h-0.011zM354.485 702.453c-0.005 0-0.010 0-0.016 0-21.754 0-39.39-17.635-39.39-39.39s17.635-39.39 39.39-39.39c21.754 0 39.39 17.635 39.39 39.39 0 0.001 0 0.003 0 0.004v0c-0.061 21.723-17.651 39.318-39.367 39.386h-0.007zM827.001-85.333c-0.011 0-0.023 0-0.036 0-21.728 0-39.342 17.614-39.342 39.342 0 0.015 0 0.031 0 0.046v-0.002 236.354c0 21.748 17.63 39.378 39.378 39.378s39.378-17.63 39.378-39.378v-236.334c0-0.019 0-0.042 0-0.064 0-21.728-17.614-39.342-39.342-39.342-0.013 0-0.025 0-0.038 0h0.002zM984.508 72.258c-0.006 0-0.013 0-0.019 0-10.437 0-19.922 4.077-26.949 10.725l0.018-0.017-130.556 122.597-130.556-122.717c-7.043-6.704-16.596-10.828-27.111-10.828-21.734 0-39.354 17.619-39.354 39.354 0 11.376 4.827 21.624 12.544 28.809l0.024 0.022 138.064 129.736c11.062 13.495 27.732 22.038 46.397 22.038s35.335-8.543 46.313-21.932l0.084-0.105 138.064-129.736c7.664-7.185 12.439-17.372 12.439-28.675 0-21.688-17.582-39.27-39.27-39.27-0.046 0-0.093 0-0.139 0h0.007z" />
</font>
</defs>
</svg>
